# xmcd CD database file generated by Grip 3.3.0
# 
# Track frame offsets:
#       150
#       13852
#       26117
#       39730
#       53695
#       66277
#       79645
#       92845
#       104485
#       117005
#       130530
#       143702
#       156385
#       169865
#       182432
#       195430
#       209075
#       221892
#       234962
#       249270
#       262640
#       275205
#       288882
# 
# Disc length: 4034 seconds
# 
# Revision: 3
# Processed by: cddbd v1.5.1PL0 Copyright (c) Steve Scherf et al.
# Submitted via: Grip 3.3.0
# 
DISCID=480fc017
DTITLE=Blind Lemon Jefferson - The Best Of Blind Lemon Jefferson
DYEAR=1900
DGENRE=Blues
TTITLE0=Match Box Blues
TTITLE1=That Crawlin' Baby Blues
TTITLE2=Hot Dogs
TTITLE3=Corinna Blues
TTITLE4=Rambler Blues
TTITLE5=Rabbit Foot Blues
TTITLE6=Dry Southern Blues
TTITLE7='Lectric Chair Blues
TTITLE8=One Dime Blues
TTITLE9=Got The Blues
TTITLE10=See That My Grave's Kept Clean
TTITLE11=He Arose From The Dead
TTITLE12=Black Horse Blues
TTITLE13=Prison Cell Blues
TTITLE14=Booster Blues
TTITLE15=Bed Spring Blues
TTITLE16=Jack 'O Diamond Blues
TTITLE17=Beggin Back
TTITLE18=Wartime Blues
TTITLE19=Easy Rider Blues
TTITLE20=How Long How Long
TTITLE21=Long Lonesome Blues
TTITLE22=I Want To Be Like Jesus In My Heart
EXTD=Yazoo 2057\n2000 remaster
EXTT0=
EXTT1=
EXTT2=
EXTT3=
EXTT4=
EXTT5=
EXTT6=
EXTT7=
EXTT8=
EXTT9=
EXTT10=
EXTT11=
EXTT12=
EXTT13=
EXTT14=
EXTT15=
EXTT16=
EXTT17=
EXTT18=
EXTT19=
EXTT20=
EXTT21=
EXTT22=
PLAYORDER=
